<?xml version="1.0" encoding="utf-8"?>
<!-- Generator: Adobe Illustrator 16.0.0, SVG Export Plug-In . SVG Version: 6.00 Build 0)  -->
<!DOCTYPE svg PUBLIC "-//W3C//DTD SVG 1.1//EN" "http://www.w3.org/Graphics/SVG/1.1/DTD/svg11.dtd">
<svg version="1.1" id="Layer_1" xmlns="http://www.w3.org/2000/svg" xmlns:xlink="http://www.w3.org/1999/xlink" x="0px" y="0px"
	 width="19.454px" height="20px" viewBox="0 0 19.454 20" enable-background="new 0 0 19.454 20" xml:space="preserve">
<path fill-rule="evenodd" clip-rule="evenodd" fill="#DADADA" d="M9.729,13.5c-1.93,0-3.499-1.57-3.499-3.5
	c0-1.93,1.569-3.5,3.499-3.5c1.931,0,3.501,1.57,3.501,3.5C13.229,11.93,11.659,13.5,9.729,13.5z M17.159,10.98
	c0.04-0.32,0.069-0.64,0.069-0.98s-0.029-0.66-0.069-0.98l2.11-1.65c0.188-0.15,0.241-0.42,0.119-0.641l-2-3.459
	c-0.119-0.22-0.39-0.3-0.609-0.22l-2.49,1C13.77,3.65,13.21,3.32,12.599,3.07l-0.38-2.65C12.189,0.18,11.98,0,11.729,0h-4
	C7.479,0,7.271,0.18,7.24,0.42L6.858,3.07C6.249,3.32,5.689,3.66,5.168,4.05l-2.488-1c-0.229-0.09-0.49,0-0.61,0.22l-2,3.459
	c-0.13,0.221-0.07,0.491,0.12,0.641l2.108,1.65C2.259,9.34,2.229,9.67,2.229,10s0.03,0.66,0.069,0.98l-2.108,1.65
	c-0.19,0.15-0.24,0.42-0.12,0.64l2,3.46c0.12,0.22,0.39,0.3,0.61,0.22l2.488-1c0.521,0.399,1.081,0.729,1.69,0.98l0.382,2.65
	C7.271,19.82,7.479,20,7.729,20h4c0.252,0,0.461-0.18,0.49-0.42l0.38-2.65c0.611-0.25,1.171-0.59,1.69-0.98l2.49,1
	c0.229,0.09,0.49,0,0.609-0.22l2-3.46c0.122-0.22,0.069-0.49-0.119-0.64L17.159,10.98z"/>
</svg>
