<?xml version="1.0" encoding="utf-8"?>
<!-- Generator: Adobe Illustrator 16.0.0, SVG Export Plug-In . SVG Version: 6.00 Build 0)  -->
<!DOCTYPE svg PUBLIC "-//W3C//DTD SVG 1.1//EN" "http://www.w3.org/Graphics/SVG/1.1/DTD/svg11.dtd">
<svg version="1.1" id="Layer_1" xmlns="http://www.w3.org/2000/svg" xmlns:xlink="http://www.w3.org/1999/xlink" x="0px" y="0px"
	 width="17.491px" height="17.49px" viewBox="0 0 17.491 17.49" enable-background="new 0 0 17.491 17.49" xml:space="preserve">
<path fill-rule="evenodd" clip-rule="evenodd" fill="#DADADA" d="M6.5,11c-2.488,0-4.499-2.01-4.499-4.5C2.001,4.01,4.012,2,6.5,2
	c2.491,0,4.501,2.01,4.501,4.5C11.001,8.99,8.991,11,6.5,11z M12.501,11h-0.79l-0.28-0.27c0.981-1.14,1.57-2.62,1.57-4.23
	c0-3.59-2.91-6.5-6.501-6.5C2.912,0,0,2.91,0,6.5S2.912,13,6.5,13c1.611,0,3.092-0.59,4.23-1.57l0.271,0.28v0.79L16,17.49L17.491,16
	L12.501,11z"/>
</svg>
