<?xml version="1.0" encoding="utf-8"?>
<!-- Generator: Adobe Illustrator 16.0.0, SVG Export Plug-In . SVG Version: 6.00 Build 0)  -->
<!DOCTYPE svg PUBLIC "-//W3C//DTD SVG 1.1//EN" "http://www.w3.org/Graphics/SVG/1.1/DTD/svg11.dtd">
<svg version="1.1" id="Layer_1" xmlns="http://www.w3.org/2000/svg" xmlns:xlink="http://www.w3.org/1999/xlink" x="0px" y="0px"
	 width="16.001px" height="19.5px" viewBox="0 0 16.001 19.5" enable-background="new 0 0 16.001 19.5" xml:space="preserve">
<path fill-rule="evenodd" clip-rule="evenodd" fill="#CDCCCC" d="M14.001,8.5c0-3.07-1.64-5.64-4.501-6.32V1.5C9.5,0.67,8.831,0,8,0
	S6.501,0.67,6.501,1.5v0.68C3.631,2.86,2,5.42,2,8.5v5l-2,2v1h16.001v-1l-2-2V8.5z M8,19.5c0.142,0,0.271-0.01,0.4-0.04
	c0.649-0.14,1.18-0.58,1.439-1.18c0.1-0.24,0.15-0.5,0.15-0.78h-4C6,18.6,6.89,19.5,8,19.5z"/>
</svg>
