<?xml version="1.0" encoding="utf-8"?>
<!-- Generator: Adobe Illustrator 16.0.0, SVG Export Plug-In . SVG Version: 6.00 Build 0)  -->
<!DOCTYPE svg PUBLIC "-//W3C//DTD SVG 1.1//EN" "http://www.w3.org/Graphics/SVG/1.1/DTD/svg11.dtd">
<svg version="1.1" id="Layer_1" xmlns="http://www.w3.org/2000/svg" xmlns:xlink="http://www.w3.org/1999/xlink" x="0px" y="0px"
	 width="18px" height="18px" viewBox="0 0 18 18" enable-background="new 0 0 18 18" xml:space="preserve">
<path fill-rule="evenodd" clip-rule="evenodd" fill="#DADADA" d="M2.12,2l0.811-1h12l0.94,1H2.12z M9,14.5L3.501,9H7V7h4.001v2H14.5
	L9,14.5z M17.54,2.23l-1.389-1.68C15.881,0.21,15.471,0,15.001,0H3C2.531,0,2.12,0.21,1.841,0.55L0.46,2.23C0.171,2.57,0,3.02,0,3.5
	V16c0,1.1,0.9,2,2,2h14c1.102,0,2-0.9,2-2V3.5C18,3.02,17.831,2.57,17.54,2.23z"/>
</svg>
