<?xml version="1.0" encoding="utf-8"?>
<!-- Generator: Adobe Illustrator 16.0.0, SVG Export Plug-In . SVG Version: 6.00 Build 0)  -->
<!DOCTYPE svg PUBLIC "-//W3C//DTD SVG 1.1//EN" "http://www.w3.org/Graphics/SVG/1.1/DTD/svg11.dtd">
<svg version="1.1" id="Layer_1" xmlns="http://www.w3.org/2000/svg" xmlns:xlink="http://www.w3.org/1999/xlink" x="0px" y="0px"
	 width="20px" height="16px" viewBox="0 0 20 16" enable-background="new 0 0 20 16" xml:space="preserve">
<path fill-rule="evenodd" clip-rule="evenodd" fill="#DADADA" d="M18.817-48.15c-1.45-1.45-3.44-2.35-5.651-2.35
	c-4.419,0-7.99,3.58-7.99,8c0,4.42,3.571,8,7.99,8c3.73,0,6.84-2.55,7.729-6h-2.079c-0.82,2.33-3.041,4-5.651,4
	c-3.309,0-5.999-2.69-5.999-6c0-3.31,2.69-6,5.999-6c1.66,0,3.14,0.69,4.221,1.78l-3.221,3.22h7.001v-7L18.817-48.15z"/>
<path fill-rule="evenodd" clip-rule="evenodd" fill="#DADADA" d="M70.795-39l0.811-1h12l0.94,1H70.795z M77.675-26.5L72.176-32
	h3.499v-2h4.001v2h3.499L77.675-26.5z M86.215-38.77l-1.389-1.68c-0.271-0.34-0.681-0.55-1.15-0.55H71.675
	c-0.469,0-0.88,0.21-1.159,0.55l-1.381,1.68c-0.289,0.34-0.46,0.79-0.46,1.27V-25c0,1.1,0.9,2,2,2h14c1.102,0,2-0.9,2-2v-12.5
	C86.675-37.98,86.506-38.43,86.215-38.77z"/>
<path fill-rule="evenodd" clip-rule="evenodd" fill="#DADADA" d="M136.676-40h-1.999v-6h1.999V-40z M135.676-35.7
	c-0.72,0-1.301-0.58-1.301-1.3s0.581-1.3,1.301-1.3c0.719,0,1.3,0.58,1.3,1.3S136.395-35.7,135.676-35.7z M139.407-50h-7.461
	l-5.27,5.27v7.46l5.27,5.27h7.461l5.27-5.27v-7.46L139.407-50z"/>
<path fill-rule="evenodd" clip-rule="evenodd" fill="#DADADA" d="M98.676-81h-3.5l-1-1h-5l-1,1h-3.5v2h14V-81z M85.676-66
	c0,1.1,0.9,2,2,2h8c1.1,0,2-0.9,2-2v-12h-12V-66z"/>
<path fill-rule="evenodd" clip-rule="evenodd" fill="#DADADA" d="M8,0H2C0.9,0,0.011,0.9,0.011,2L0,14c0,1.1,0.9,2,2,2h16
	c1.1,0,2-0.9,2-2V4c0-1.1-0.9-2-2-2h-8L8,0z"/>
<path fill-rule="evenodd" clip-rule="evenodd" fill="#DADADA" d="M111.639-31.16C111.28-31.67,110.68-32,110.01-32l-11,0.01
	c-1.1,0-2,0.89-2,1.99v10c0,1.1,0.9,1.99,2,1.99l11,0.01c0.67,0,1.27-0.33,1.629-0.84L116.01-25L111.639-31.16z"/>
<path fill-rule="evenodd" clip-rule="evenodd" fill="#DADADA" d="M49.068-67.098c-2.488,0-4.499-2.01-4.499-4.5
	c0-2.49,2.011-4.5,4.499-4.5c2.491,0,4.501,2.01,4.501,4.5C53.569-69.107,51.56-67.098,49.068-67.098z M55.069-67.098h-0.79
	l-0.28-0.27c0.981-1.14,1.57-2.62,1.57-4.23c0-3.59-2.91-6.5-6.501-6.5c-3.588,0-6.5,2.91-6.5,6.5s2.912,6.5,6.5,6.5
	c1.611,0,3.092-0.59,4.23-1.57l0.271,0.28v0.79l4.999,4.99l1.491-1.49L55.069-67.098z"/>
<path fill-rule="evenodd" clip-rule="evenodd" fill="#DADADA" d="M137.667-76.353l7.428,7l1.534-1.727l-4.859-4.264h9.916
	l-0.064-2.035h-9.852l4.859-4.283l-1.651-1.691L137.667-76.353z"/>
<path fill-rule="evenodd" clip-rule="evenodd" fill="#DADADA" d="M195-64l-7.428,7l-1.536-1.727l4.861-4.264h-9.916l0.064-2.035
	h9.852l-4.861-4.283L187.688-71L195-64z"/>
<path fill-rule="evenodd" clip-rule="evenodd" fill="#DADADA" d="M151.687-11.5c-1.93,0-3.499-1.57-3.499-3.5
	c0-1.93,1.569-3.5,3.499-3.5c1.931,0,3.501,1.57,3.501,3.5C155.188-13.07,153.618-11.5,151.687-11.5z M159.118-14.02
	c0.04-0.32,0.069-0.64,0.069-0.98s-0.029-0.66-0.069-0.98l2.11-1.65c0.188-0.15,0.241-0.42,0.119-0.641l-2-3.459
	c-0.119-0.22-0.39-0.3-0.609-0.22l-2.49,1c-0.52-0.399-1.079-0.729-1.69-0.979l-0.38-2.65c-0.029-0.24-0.238-0.42-0.49-0.42h-4
	c-0.249,0-0.458,0.18-0.488,0.42l-0.382,2.65c-0.609,0.25-1.169,0.59-1.69,0.979l-2.488-1c-0.229-0.09-0.49,0-0.61,0.22l-2,3.459
	c-0.13,0.221-0.07,0.491,0.12,0.641l2.108,1.65c-0.039,0.32-0.069,0.65-0.069,0.98s0.03,0.66,0.069,0.98l-2.108,1.65
	c-0.19,0.15-0.24,0.42-0.12,0.64l2,3.46c0.12,0.22,0.39,0.3,0.61,0.22l2.488-1c0.521,0.399,1.081,0.729,1.69,0.98l0.382,2.65
	c0.03,0.24,0.239,0.42,0.488,0.42h4c0.252,0,0.461-0.18,0.49-0.42l0.38-2.65c0.611-0.25,1.171-0.59,1.69-0.98l2.49,1
	c0.229,0.09,0.49,0,0.609-0.22l2-3.46c0.122-0.22,0.069-0.49-0.119-0.64L159.118-14.02z"/>
</svg>
