<?xml version="1.0" encoding="utf-8"?>
<!-- Generator: Adobe Illustrator 16.0.0, SVG Export Plug-In . SVG Version: 6.00 Build 0)  -->
<!DOCTYPE svg PUBLIC "-//W3C//DTD SVG 1.1//EN" "http://www.w3.org/Graphics/SVG/1.1/DTD/svg11.dtd">
<svg version="1.1" id="Layer_1" xmlns="http://www.w3.org/2000/svg" xmlns:xlink="http://www.w3.org/1999/xlink" x="0px" y="0px"
	 width="15.991px" height="16px" viewBox="0 0 15.991 16" enable-background="new 0 0 15.991 16" xml:space="preserve">
<path fill-rule="evenodd" clip-rule="evenodd" fill="#DADADA" d="M13.641,2.35C12.19,0.9,10.201,0,7.99,0C3.571,0,0,3.58,0,8
	c0,4.42,3.571,8,7.99,8c3.73,0,6.84-2.55,7.729-6h-2.079c-0.82,2.33-3.041,4-5.651,4c-3.309,0-5.999-2.69-5.999-6
	c0-3.31,2.69-6,5.999-6c1.66,0,3.14,0.69,4.221,1.78L8.99,7h7.001V0L13.641,2.35z"/>
</svg>
