<?xml version="1.0" encoding="utf-8"?>
<!-- Generator: Adobe Illustrator 16.0.0, SVG Export Plug-In . SVG Version: 6.00 Build 0)  -->
<!DOCTYPE svg PUBLIC "-//W3C//DTD SVG 1.1//EN" "http://www.w3.org/Graphics/SVG/1.1/DTD/svg11.dtd">
<svg version="1.1" id="Layer_1" xmlns="http://www.w3.org/2000/svg" xmlns:xlink="http://www.w3.org/1999/xlink" x="0px" y="0px"
	 width="13px" height="13px" viewBox="0 0 13 13" enable-background="new 0 0 13 13" xml:space="preserve">
<path fill-rule="evenodd" clip-rule="evenodd" fill="#CDCCCC" d="M5.001,8c1.656,0,3-1.343,3-3c0-1.657-1.343-3-3-3
	c-1.658,0-3,1.343-3,3C2.001,6.657,3.343,8,5.001,8z M7.774,9.16C6.981,9.69,6.027,10,5.001,10C2.239,10,0,7.761,0,5
	s2.239-5,5.001-5c2.761,0,5,2.239,5,5c0,1.026-0.31,1.981-0.84,2.775L13,11.623L11.623,13L7.774,9.16z"/>
</svg>
