<?xml version="1.0"?>
<!--Icons from directory ""-->
<svg xmlns="http://www.w3.org/2000/svg" width="20" height="38" viewBox="0 0 20 38"><svg xmlns:xlink="http://www.w3.org/1999/xlink" id="ico-star-01" xml:space="preserve" height="19" viewBox="0 0 20 19" width="20" version="1.1" y="0" x="0px" enable-background="new 0 0 20 19"><path fill="#DADADA" clip-rule="evenodd" d="m10.001 13.4l-3.76 2.27 1-4.28-3.321-2.88 4.38-0.38 1.701-4.03 1.709 4.04 4.38 0.38-3.319 2.88 1 4.28-3.77-2.28zm9.999-6.16l-7.189-0.62-2.81-6.62-2.81 6.63-7.191 0.61 5.46 4.73-1.64 7.03 6.181-3.73 6.18 3.73-1.631-7.03 5.45-4.73z" fill-rule="evenodd"/></svg><svg xmlns:xlink="http://www.w3.org/1999/xlink" id="ico-star-02" xml:space="preserve" height="19" viewBox="0 0 20 19" width="20" version="1.1" y="19" x="0px" enable-background="new 0 0 20 19"><path fill="#FDCC79" clip-rule="evenodd" d="m10.001 15.27l6.18 3.73-1.64-7.03 5.459-4.73-7.189-0.61-2.81-6.63-2.81 6.63-7.191 0.61 5.46 4.73-1.64 7.03 6.181-3.73z" fill-rule="evenodd"/></svg></svg>
