<?xml version="1.0"?>
<!--Icons from directory ""-->
<svg xmlns="http://www.w3.org/2000/svg" width="20" height="165" viewBox="0 0 20 165"><svg xmlns:xlink="http://www.w3.org/1999/xlink" id="ico-mail-01" xml:space="preserve" height="16" viewBox="0 0 15.991 16" width="16" version="1.1" y="0" x="0px" enable-background="new 0 0 15.991 16"><path fill="#DADADA" clip-rule="evenodd" d="m13.641 2.35c-1.451-1.45-3.44-2.35-5.651-2.35-4.419 0-7.99 3.58-7.99 8s3.571 8 7.99 8c3.73 0 6.84-2.55 7.729-6h-2.079c-0.82 2.33-3.041 4-5.651 4-3.309 0-5.999-2.69-5.999-6s2.69-6 5.999-6c1.66 0 3.14 0.69 4.221 1.78l-3.22 3.22h7.001v-7l-2.35 2.35z" fill-rule="evenodd"/></svg><svg xmlns:xlink="http://www.w3.org/1999/xlink" id="ico-mail-02" xml:space="preserve" height="18" viewBox="0 0 18 18" width="18" version="1.1" y="16" x="0px" enable-background="new 0 0 18 18"><path fill="#DADADA" clip-rule="evenodd" d="m2.12 2l0.811-1h12l0.94 1h-13.751zm6.88 12.5l-5.499-5.5h3.499v-2h4.001v2h3.499l-5.5 5.5zm8.54-12.27l-1.389-1.68c-0.27-0.34-0.68-0.55-1.15-0.55h-12.001c-0.469 0-0.88 0.21-1.159 0.55l-1.381 1.68c-0.289 0.34-0.46 0.79-0.46 1.27v12.5c0 1.1 0.9 2 2 2h14c1.102 0 2-0.9 2-2v-12.5c0-0.48-0.169-0.93-0.46-1.27z" fill-rule="evenodd"/></svg><svg xmlns:xlink="http://www.w3.org/1999/xlink" id="ico-mail-03" xml:space="preserve" height="17" viewBox="0 0 17.491 17.49" width="17" version="1.1" y="34" x="0px" enable-background="new 0 0 17.491 17.49"><path fill="#DADADA" clip-rule="evenodd" d="m6.5 11c-2.488 0-4.499-2.01-4.499-4.5s2.011-4.5 4.499-4.5c2.491 0 4.501 2.01 4.501 4.5s-2.01 4.5-4.501 4.5zm6.001 0h-0.79l-0.28-0.27c0.981-1.14 1.57-2.62 1.57-4.23 0-3.59-2.91-6.5-6.501-6.5-3.588 0-6.5 2.91-6.5 6.5s2.912 6.5 6.5 6.5c1.611 0 3.092-0.59 4.23-1.57l0.271 0.28v0.79l4.999 4.99 1.491-1.49-4.99-5z" fill-rule="evenodd"/></svg><svg xmlns:xlink="http://www.w3.org/1999/xlink" id="ico-mail-04" xml:space="preserve" height="18" viewBox="0 0 14 18" width="14" version="1.1" y="51" x="0px" enable-background="new 0 0 14 18"><path fill="#DADADA" clip-rule="evenodd" d="m14 1h-3.5l-1-1h-5l-1 1h-3.5v2h14v-2zm-13 15c0 1.1 0.9 2 2 2h8c1.1 0 2-0.9 2-2v-12h-12v12z" fill-rule="evenodd"/></svg><svg xmlns:xlink="http://www.w3.org/1999/xlink" id="ico-mail-05" xml:space="preserve" height="14" viewBox="0 0 19 14" width="19" version="1.1" y="69" x="0px" enable-background="new 0 0 19 14"><path fill="#DADADA" clip-rule="evenodd" d="m14.629 0.84c-0.359-0.51-0.959-0.84-1.629-0.84l-11 0.01c-1.1 0-2 0.89-2 1.99v10c0 1.1 0.9 1.99 2 1.99l11 0.01c0.67 0 1.27-0.33 1.629-0.84l4.371-6.16-4.371-6.16z" fill-rule="evenodd"/></svg><svg xmlns:xlink="http://www.w3.org/1999/xlink" id="ico-mail-06" xml:space="preserve" height="18" viewBox="0 0 18 18" width="18" version="1.1" y="83" x="0px" enable-background="new 0 0 18 18"><path fill="#DADADA" clip-rule="evenodd" d="m10 10h-1.999v-6h1.999v6zm-1 4.3c-0.72 0-1.301-0.58-1.301-1.3s0.581-1.3 1.301-1.3c0.719 0 1.3 0.58 1.3 1.3s-0.581 1.3-1.3 1.3zm3.73-14.3h-7.46l-5.27 5.27v7.46l5.27 5.27h7.461l5.269-5.27v-7.46l-5.27-5.27z" fill-rule="evenodd"/></svg><svg xmlns:xlink="http://www.w3.org/1999/xlink" id="ico-mail-07" xml:space="preserve" height="14" viewBox="0 0 14.019 14" width="14" version="1.1" y="101" x="0px" enable-background="new 0 0 14.019 14"><path fill="#DADADA" clip-rule="evenodd" d="m0 7l7.428 7 1.534-1.727-4.859-4.263h9.916l-0.064-2.035h-9.852l4.859-4.283-1.651-1.692-7.311 7z" fill-rule="evenodd"/></svg><svg xmlns:xlink="http://www.w3.org/1999/xlink" id="ico-mail-08" xml:space="preserve" height="14" viewBox="0 0 14.019 14" width="14" version="1.1" y="115" x="0px" enable-background="new 0 0 14.019 14"><path fill="#DADADA" clip-rule="evenodd" d="m14.019 7l-7.428 7-1.536-1.727 4.861-4.263h-9.916l0.064-2.035h9.852l-4.861-4.284 1.652-1.691 7.312 7z" fill-rule="evenodd"/></svg><svg xmlns:xlink="http://www.w3.org/1999/xlink" id="ico-mail-09" xml:space="preserve" height="20" viewBox="0 0 19.454 20" width="19" version="1.1" y="129" x="0px" enable-background="new 0 0 19.454 20"><path fill="#DADADA" clip-rule="evenodd" d="m9.729 13.5c-1.93 0-3.499-1.57-3.499-3.5s1.569-3.5 3.499-3.5c1.931 0 3.501 1.57 3.501 3.5-0.001 1.93-1.571 3.5-3.501 3.5zm7.43-2.52c0.04-0.32 0.069-0.64 0.069-0.98s-0.029-0.66-0.069-0.98l2.11-1.65c0.188-0.15 0.241-0.42 0.119-0.641l-2-3.459c-0.119-0.22-0.39-0.3-0.609-0.22l-2.49 1c-0.519-0.4-1.079-0.73-1.69-0.98l-0.38-2.65c-0.03-0.24-0.239-0.42-0.49-0.42h-4c-0.25 0-0.458 0.18-0.489 0.42l-0.382 2.65c-0.609 0.25-1.169 0.59-1.69 0.98l-2.488-1c-0.229-0.09-0.49 0-0.61 0.22l-2 3.459c-0.13 0.221-0.07 0.491 0.12 0.641l2.108 1.65c-0.039 0.32-0.069 0.65-0.069 0.98s0.03 0.66 0.069 0.98l-2.108 1.65c-0.19 0.15-0.24 0.42-0.12 0.64l2 3.46c0.12 0.22 0.39 0.3 0.61 0.22l2.488-1c0.521 0.399 1.081 0.729 1.69 0.98l0.382 2.65c0.031 0.24 0.239 0.42 0.489 0.42h4c0.252 0 0.461-0.18 0.49-0.42l0.38-2.65c0.611-0.25 1.171-0.59 1.69-0.98l2.49 1c0.229 0.09 0.49 0 0.609-0.22l2-3.46c0.122-0.22 0.069-0.49-0.119-0.64l-2.11-1.65z" fill-rule="evenodd"/></svg><svg xmlns:xlink="http://www.w3.org/1999/xlink" id="ico-mail-10" xml:space="preserve" height="16" viewBox="0 0 20 16" width="20" version="1.1" y="149" x="0px" enable-background="new 0 0 20 16"><path fill="#DADADA" clip-rule="evenodd" d="m8 0h-6c-1.1 0-1.989 0.9-1.989 2l-0.011 12c0 1.1 0.9 2 2 2h16c1.1 0 2-0.9 2-2v-10c0-1.1-0.9-2-2-2h-8l-2-2z" fill-rule="evenodd"/></svg></svg>
