<?xml version="1.0" encoding="utf-8"?>
<!-- Generator: Adobe Illustrator 16.0.0, SVG Export Plug-In . SVG Version: 6.00 Build 0)  -->
<!DOCTYPE svg PUBLIC "-//W3C//DTD SVG 1.1//EN" "http://www.w3.org/Graphics/SVG/1.1/DTD/svg11.dtd">
<svg version="1.1" id="Layer_1" xmlns="http://www.w3.org/2000/svg" xmlns:xlink="http://www.w3.org/1999/xlink" x="0px" y="0px"
	 width="16px" height="13.332px" viewBox="0 0 16 13.332" enable-background="new 0 0 16 13.332" xml:space="preserve">
<g>
	<path fill="#666666" d="M5.945,6.582C5.912,6.588,5.879,6.598,5.847,6.611C5.816,6.624,5.785,6.64,5.757,6.659
		C5.729,6.679,5.701,6.7,5.678,6.725C5.58,6.821,5.524,6.956,5.524,7.094c0,0.035,0.003,0.068,0.01,0.102
		c0.007,0.034,0.017,0.066,0.03,0.098c0.013,0.032,0.029,0.062,0.048,0.09c0.019,0.028,0.041,0.056,0.065,0.08
		C5.702,7.488,5.729,7.51,5.757,7.528s0.059,0.036,0.09,0.048C5.879,7.59,5.912,7.6,5.945,7.606
		c0.034,0.007,0.067,0.011,0.102,0.011c0.138,0,0.272-0.056,0.37-0.153C6.514,7.367,6.57,7.231,6.57,7.094S6.515,6.821,6.417,6.725
		C6.295,6.603,6.115,6.547,5.945,6.582"/>
	<path fill="#666666" d="M10.436,6.894c-0.013-0.031-0.029-0.062-0.048-0.09c-0.02-0.03-0.041-0.056-0.065-0.081
		c-0.024-0.023-0.05-0.045-0.079-0.064c-0.028-0.019-0.06-0.035-0.09-0.048c-0.032-0.012-0.065-0.023-0.098-0.029
		c-0.068-0.014-0.137-0.014-0.204,0C9.817,6.588,9.784,6.599,9.752,6.611C9.721,6.624,9.69,6.64,9.662,6.659
		C9.634,6.679,9.606,6.7,9.583,6.724C9.559,6.749,9.537,6.774,9.518,6.804C9.499,6.832,9.482,6.863,9.47,6.894
		C9.457,6.925,9.446,6.959,9.44,6.992C9.433,7.026,9.429,7.06,9.429,7.094c0,0.035,0.003,0.069,0.011,0.102
		c0.006,0.034,0.017,0.066,0.03,0.098c0.013,0.032,0.029,0.062,0.048,0.09C9.537,7.413,9.559,7.44,9.583,7.463
		c0.024,0.025,0.051,0.046,0.08,0.065c0.028,0.019,0.059,0.036,0.09,0.048c0.032,0.013,0.064,0.024,0.098,0.03
		c0.033,0.007,0.067,0.011,0.102,0.011c0.035,0,0.068-0.003,0.103-0.011c0.033-0.006,0.066-0.017,0.098-0.03
		c0.031-0.013,0.062-0.029,0.09-0.048c0.029-0.019,0.055-0.04,0.079-0.065c0.024-0.023,0.045-0.051,0.065-0.079
		c0.019-0.028,0.035-0.059,0.048-0.09c0.013-0.032,0.023-0.064,0.029-0.098c0.007-0.033,0.01-0.067,0.01-0.102
		c0-0.034-0.003-0.068-0.01-0.102C10.458,6.959,10.448,6.925,10.436,6.894"/>
	<path fill="#666666" d="M15.758,7.037C15.375,3.093,12.042,0,8,0C3.957,0,0.624,3.093,0.241,7.038C0.087,7.339,0,7.68,0,8.041
		c0,1.22,0.992,2.212,2.212,2.212h0.954C4.016,12.071,5.86,13.332,8,13.332c1.197,0,2.302-0.396,3.191-1.062l1.482,0.264
		c0.156,0.028,0.312,0.042,0.468,0.042c0.619,0,1.221-0.216,1.703-0.62c0.604-0.506,0.951-1.248,0.951-2.036v-0.95
		C15.926,8.687,16,8.372,16,8.041C16,7.68,15.912,7.338,15.758,7.037 M2.181,9.454C1.416,9.438,0.799,8.81,0.799,8.041
		c0-0.084,0.008-0.166,0.022-0.246c0.051-0.287,0.187-0.544,0.383-0.744c0.256-0.261,0.613-0.424,1.007-0.424H2.66
		c-0.11,0.447-0.166,0.907-0.166,1.371c0,0.495,0.062,0.982,0.187,1.455H2.181z M3.128,5.829H2.212
		c-0.283,0-0.553,0.054-0.802,0.151C2.208,3.089,4.859,0.959,8,0.959c3.141,0,5.792,2.13,6.59,5.021
		c-0.249-0.097-0.52-0.151-0.802-0.151h-0.917C12.04,3.965,10.172,2.666,8,2.666C5.827,2.666,3.96,3.965,3.128,5.829 M11.117,11.283
		l-0.348-0.062c-0.137-0.281-0.422-0.476-0.755-0.476c-0.466,0-0.843,0.377-0.843,0.843c0,0.279,0.137,0.524,0.346,0.678
		C9.042,12.436,8.532,12.533,8,12.533c-2.5,0-4.534-2.034-4.534-4.534c0-2.5,2.034-4.534,4.534-4.534c2.5,0,4.534,2.034,4.534,4.534
		C12.534,9.292,11.987,10.457,11.117,11.283 M14.229,11.22c-0.386,0.323-0.892,0.458-1.388,0.37l-0.78-0.138
		c0.308-0.362,0.569-0.764,0.772-1.199h0.954c0.378,0,0.735-0.096,1.046-0.264C14.815,10.466,14.597,10.912,14.229,11.22
		 M15.191,8.201c-0.034,0.3-0.163,0.571-0.355,0.784c-0.259,0.287-0.632,0.469-1.048,0.469h-0.468
		c0.124-0.473,0.187-0.96,0.187-1.455c0-0.464-0.056-0.924-0.166-1.371h0.448c0.394,0,0.75,0.163,1.007,0.423
		c0.236,0.241,0.386,0.566,0.403,0.925c0.001,0.021,0.003,0.042,0.003,0.064C15.201,8.095,15.197,8.148,15.191,8.201"/>
</g>
</svg>
