<?xml version="1.0" encoding="utf-8"?>
<!-- Generator: Adobe Illustrator 16.0.0, SVG Export Plug-In . SVG Version: 6.00 Build 0)  -->
<!DOCTYPE svg PUBLIC "-//W3C//DTD SVG 1.1//EN" "http://www.w3.org/Graphics/SVG/1.1/DTD/svg11.dtd">
<svg version="1.1" id="Layer_1" xmlns="http://www.w3.org/2000/svg" xmlns:xlink="http://www.w3.org/1999/xlink" x="0px" y="0px"
	 width="16px" height="13.961px" viewBox="0 0 16 13.961" enable-background="new 0 0 16 13.961" xml:space="preserve">
<path fill="#991717" d="M15.532,0H0.467C0.209,0,0,0.209,0,0.467V3.5c0,0.258,0.209,0.467,0.467,0.467H1.6l4.633,5.91v3.617
	c0,0.164,0.087,0.316,0.228,0.401c0.074,0.044,0.157,0.066,0.24,0.066c0.075,0,0.151-0.019,0.221-0.056l2.599-1.392
	c0.152-0.082,0.247-0.24,0.247-0.412V9.877l4.633-5.91h1.133C15.79,3.967,16,3.758,16,3.5V0.467C16,0.209,15.79,0,15.532,0
	 M8.932,9.427c-0.064,0.082-0.1,0.184-0.1,0.288v2.107l-1.665,0.892V9.715c0-0.104-0.035-0.206-0.1-0.288l-4.28-5.46h10.425
	L8.932,9.427z M15.065,3.033H0.934V0.935h14.132V3.033z"/>
</svg>
