<?xml version="1.0" encoding="utf-8"?>
<!-- Generator: Adobe Illustrator 16.0.0, SVG Export Plug-In . SVG Version: 6.00 Build 0)  -->
<!DOCTYPE svg PUBLIC "-//W3C//DTD SVG 1.1//EN" "http://www.w3.org/Graphics/SVG/1.1/DTD/svg11.dtd">
<svg version="1.1" id="Layer_1" xmlns="http://www.w3.org/2000/svg" xmlns:xlink="http://www.w3.org/1999/xlink" x="0px" y="0px"
	 width="14px" height="13.466px" viewBox="0 0 14 13.466" enable-background="new 0 0 14 13.466" xml:space="preserve">
<path fill="#AAAAAA" d="M13.532,10.733L9.868,7.068c0.246-0.6,0.386-1.253,0.386-1.941C10.254,2.295,7.958,0,5.127,0
	C2.295,0,0,2.295,0,5.127c0,2.832,2.295,5.127,5.127,5.127c0.97,0,1.868-0.286,2.641-0.754l3.499,3.499
	c0.624,0.623,1.644,0.623,2.266,0C14.155,12.375,14.155,11.356,13.532,10.733 M6.739,7.88C6.263,8.16,5.717,8.331,5.127,8.331
	c-1.767,0-3.205-1.437-3.205-3.204c0-1.767,1.438-3.204,3.205-3.204c1.767,0,3.204,1.438,3.204,3.204
	c0,0.388-0.08,0.754-0.206,1.099C7.867,6.926,7.375,7.506,6.739,7.88"/>
</svg>
