<?xml version="1.0" encoding="utf-8"?>
<!-- Generator: Adobe Illustrator 16.0.0, SVG Export Plug-In . SVG Version: 6.00 Build 0)  -->
<!DOCTYPE svg PUBLIC "-//W3C//DTD SVG 1.1//EN" "http://www.w3.org/Graphics/SVG/1.1/DTD/svg11.dtd">
<svg version="1.1" id="Layer_1" xmlns="http://www.w3.org/2000/svg" xmlns:xlink="http://www.w3.org/1999/xlink" x="0px" y="0px"
	 width="16px" height="14.903px" viewBox="0 0 16 14.903" enable-background="new 0 0 16 14.903" xml:space="preserve">
<path fill="#666666" d="M15.899,2.706c-0.084-0.104-0.211-0.163-0.345-0.163H2.812L2.389,0.361C2.348,0.152,2.164,0,1.951,0H0.446
	C0.2,0,0,0.199,0,0.446s0.2,0.446,0.446,0.446h1.137l1.92,10.047c0.038,0.213,0.223,0.368,0.439,0.368h1.575
	c-0.846,0.153-1.489,0.895-1.489,1.784c0,1,0.813,1.812,1.813,1.812s1.813-0.813,1.813-1.812c0-0.889-0.644-1.63-1.489-1.784h5.791
	c-0.846,0.153-1.489,0.895-1.489,1.784c0,1,0.813,1.812,1.813,1.812c0.999,0,1.812-0.813,1.812-1.812
	c0-0.889-0.644-1.63-1.489-1.784h1.357c0.247,0,0.446-0.199,0.446-0.446c0-0.246-0.2-0.445-0.446-0.445H4.316L4.18,9.639h10.144
	c0.213,0,0.396-0.15,0.437-0.359l1.231-6.204C16.018,2.945,15.983,2.809,15.899,2.706 M13.2,13.091c0,0.508-0.413,0.921-0.92,0.921
	c-0.508,0-0.922-0.413-0.922-0.921c0-0.508,0.414-0.921,0.922-0.921C12.787,12.17,13.2,12.583,13.2,13.091 M6.762,13.091
	c0,0.508-0.413,0.921-0.921,0.921c-0.508,0-0.921-0.413-0.921-0.921c0-0.508,0.413-0.921,0.921-0.921
	C6.349,12.17,6.762,12.583,6.762,13.091 M4.014,8.747L3.41,5.627h1.683l0.512,3.12H4.014z M8.551,8.747H6.508l-0.513-3.12h2.556
	V8.747z M11.519,8.747H9.443v-3.12h2.523L11.519,8.747z M13.957,8.747h-1.538l0.448-3.12h1.708L13.957,8.747z M14.753,4.735H3.237
	L2.984,3.434h12.027L14.753,4.735z"/>
</svg>
