<?xml version="1.0" encoding="utf-8"?>
<!-- Generator: Adobe Illustrator 16.0.0, SVG Export Plug-In . SVG Version: 6.00 Build 0)  -->
<!DOCTYPE svg PUBLIC "-//W3C//DTD SVG 1.1//EN" "http://www.w3.org/Graphics/SVG/1.1/DTD/svg11.dtd">
<svg version="1.1" id="Layer_1" xmlns="http://www.w3.org/2000/svg" xmlns:xlink="http://www.w3.org/1999/xlink" x="0px" y="0px"
	 width="16px" height="17.852px" viewBox="0 0 16 17.852" enable-background="new 0 0 16 17.852" xml:space="preserve">
<path fill="#666666" d="M15.704,14.592c-1.897-0.856-1.969-4.534-1.971-4.626V7.499c0-2.375-1.451-4.417-3.513-5.286
	C10.216,0.992,9.222,0,8,0C6.778,0,5.785,0.992,5.78,2.213C3.718,3.082,2.267,5.124,2.267,7.499v2.467
	c-0.001,0.093-0.073,3.77-1.971,4.626c-0.216,0.098-0.335,0.333-0.285,0.565c0.05,0.232,0.255,0.398,0.493,0.398h4.809
	c0.099,0.542,0.355,1.046,0.748,1.455c0.521,0.542,1.21,0.842,1.939,0.842c0.73,0,1.419-0.299,1.94-0.842
	c0.393-0.409,0.649-0.914,0.748-1.455h4.809c0.237,0,0.442-0.166,0.493-0.398C16.039,14.925,15.92,14.69,15.704,14.592
	 M13.205,12.831c0.199,0.604,0.482,1.211,0.882,1.717H1.914c0.4-0.506,0.683-1.113,0.882-1.717H13.205z M8,1.007
	c0.552,0,1.02,0.372,1.166,0.877C8.79,1.806,8.4,1.765,8,1.765c-0.4,0-0.79,0.041-1.167,0.119C6.98,1.378,7.448,1.007,8,1.007
	 M3.274,9.968v-2.47c0-2.606,2.12-4.726,4.727-4.726c2.606,0,4.727,2.12,4.727,4.726v2.474c0,0.076,0.012,0.872,0.213,1.852H3.061
	C3.262,10.843,3.273,10.046,3.274,9.968 M8,16.845c-0.769,0-1.439-0.554-1.654-1.29h3.308C9.438,16.291,8.769,16.845,8,16.845"/>
</svg>
