<?xml version="1.0" encoding="utf-8"?>
<!-- Generator: Adobe Illustrator 16.0.0, SVG Export Plug-In . SVG Version: 6.00 Build 0)  -->
<!DOCTYPE svg PUBLIC "-//W3C//DTD SVG 1.1//EN" "http://www.w3.org/Graphics/SVG/1.1/DTD/svg11.dtd">
<svg version="1.1" id="Layer_1" xmlns="http://www.w3.org/2000/svg" xmlns:xlink="http://www.w3.org/1999/xlink" x="0px" y="0px"
	 width="16.942px" height="16px" viewBox="0 0 16.942 16" enable-background="new 0 0 16.942 16" xml:space="preserve">
<path fill="#666666" d="M14.373,10.885c-0.923-0.65-2.019-1.131-3.211-1.419c1.106-0.958,1.824-2.491,1.824-4.214
	C12.985,2.356,10.96,0,8.471,0C5.982,0,3.957,2.356,3.957,5.252c0,1.724,0.718,3.257,1.824,4.214
	c-1.192,0.288-2.289,0.769-3.211,1.419C0.912,12.053,0,13.63,0,15.324C0,15.698,0.303,16,0.676,16h15.59
	c0.374,0,0.676-0.302,0.676-0.676C16.942,13.63,16.029,12.053,14.373,10.885 M12.985,14.648v-1.208c0-0.373-0.302-0.676-0.676-0.676
	c-0.373,0-0.676,0.303-0.676,0.676v1.208H5.309v-1.208c0-0.373-0.303-0.676-0.676-0.676s-0.676,0.303-0.676,0.676v1.208H1.422
	c0.208-0.991,0.875-1.917,1.926-2.658c1.359-0.958,3.178-1.487,5.122-1.487s3.763,0.528,5.123,1.487
	c1.052,0.742,1.717,1.667,1.926,2.658H12.985z M5.309,5.252c0-2.15,1.418-3.9,3.162-3.9s3.163,1.75,3.163,3.9s-1.419,3.9-3.163,3.9
	S5.309,7.402,5.309,5.252"/>
</svg>
