<?xml version="1.0" encoding="utf-8"?>
<!-- Generator: Adobe Illustrator 16.0.0, SVG Export Plug-In . SVG Version: 6.00 Build 0)  -->
<!DOCTYPE svg PUBLIC "-//W3C//DTD SVG 1.1//EN" "http://www.w3.org/Graphics/SVG/1.1/DTD/svg11.dtd">
<svg version="1.1" id="Layer_1" xmlns="http://www.w3.org/2000/svg" xmlns:xlink="http://www.w3.org/1999/xlink" x="0px" y="0px"
	 width="11.031px" height="16px" viewBox="0 0 11.031 16" enable-background="new 0 0 11.031 16" xml:space="preserve">
<path fill="#666666" d="M9.997,3.709H8.814V1.634L7.185,0H3.846L2.217,1.634v2.075H1.034C0.466,3.709,0,4.174,0,4.743v10.223
	C0,15.534,0.466,16,1.034,16h8.963c0.568,0,1.034-0.466,1.034-1.034V4.743C11.031,4.174,10.565,3.709,9.997,3.709 M3.846,1.634
	h3.339v2.075H3.846V1.634z M9.937,14.905H1.094V4.803h1.123v1.844h1.629V4.803h3.339v1.844h1.629V4.803h1.123V14.905z"/>
</svg>
